<svg width="18" height="18" viewBox="0 0 18 18" fill="none" xmlns="http://www.w3.org/2000/svg">
<path fill-rule="evenodd" clip-rule="evenodd" d="M3.0785 0.553049C2.68484 0.62478 2.30488 0.851325 2.05319 1.16439C1.91782 1.33278 1.77585 1.60782 1.7186 1.8126L1.67836 1.95649L1.67367 6.81877L1.66897 11.681L0.893413 13.411C0.466836 14.3624 0.102745 15.1845 0.0843083 15.2378C0.0179186 15.4297 -0.00845017 15.63 0.00234198 15.8604C0.0218758 16.2766 0.143575 16.5654 0.43615 16.8899C0.628844 17.1036 1.01536 17.3362 1.31862 17.421L1.46252 17.4612L8.89111 17.4666C14.4084 17.4706 16.3635 17.4667 16.49 17.4513C16.5836 17.4399 16.7132 17.4145 16.7778 17.3947C17.3127 17.2309 17.8293 16.6898 17.9385 16.1789C17.9548 16.1026 17.9756 16.0154 17.9848 15.985C18.0049 15.9185 18.0052 15.5387 17.9851 15.5901C17.9747 15.6167 17.9681 15.6021 17.9587 15.5314C17.9273 15.2948 17.8447 15.1018 17.0476 13.4044L16.2392 11.6827L16.2345 6.81062L16.2298 1.93851L16.1801 1.7803C15.9917 1.17964 15.548 0.744375 14.9527 0.57618L14.8088 0.535529L9.00803 0.532561C4.30636 0.530151 3.18286 0.534036 3.0785 0.553049ZM3.16663 1.69793C3.056 1.74045 2.91556 1.86935 2.85391 1.98495L2.81154 2.06442L2.8069 6.65557L2.80227 11.2467H8.95392H15.1056L15.1054 6.67356L15.1052 2.10039L15.0616 2.00662C15.0058 1.88681 14.8785 1.7595 14.7587 1.70372L14.6649 1.66007L8.96306 1.66083C3.28571 1.66158 3.2608 1.66174 3.16663 1.69793ZM8.73272 2.86591C8.38206 2.89703 8.03567 2.99815 7.70896 3.16477C7.4518 3.29591 7.23972 3.44921 7.029 3.65626C6.61674 4.06132 6.35767 4.53006 6.23741 5.08848C6.1884 5.31614 6.17016 5.78407 6.20119 6.01837C6.29995 6.76425 6.68804 7.43916 7.27531 7.88642L7.44324 8.01431L7.20403 8.13316C6.77137 8.34818 6.37017 8.64363 6.05148 8.98193C5.77706 9.27328 5.72403 9.37804 5.73831 9.60066C5.74889 9.7654 5.81504 9.89189 5.94736 10.0004C6.09372 10.1204 6.29546 10.1532 6.48698 10.0882C6.57082 10.0598 6.61996 10.0186 6.8737 9.76427C7.08064 9.55684 7.21337 9.44034 7.33449 9.35983C7.66958 9.1371 8.01769 8.99085 8.41446 8.90611C8.66912 8.85172 9.23747 8.84618 9.48096 8.8957C9.96027 8.99319 10.4972 9.25085 10.8697 9.56204C10.929 9.61163 11.0626 9.73517 11.1665 9.83656C11.3694 10.0347 11.4472 10.0849 11.5937 10.1127C11.6948 10.1319 11.8577 10.1112 11.9395 10.0687C12.0262 10.0238 12.1473 9.90176 12.1919 9.81456C12.2303 9.73929 12.2367 9.70259 12.2367 9.55596C12.2367 9.40054 12.232 9.37696 12.1849 9.29515C12.1565 9.24569 12.031 9.10384 11.9061 8.97993C11.5509 8.62746 11.1382 8.33503 10.6943 8.12124C10.5979 8.07478 10.5193 8.03256 10.5197 8.02742C10.5201 8.02229 10.5781 7.97761 10.6485 7.92815C11.1887 7.54864 11.595 6.91991 11.7427 6.23511C11.7911 6.01073 11.8102 5.52583 11.7793 5.30791C11.6454 4.36606 11.0964 3.58566 10.272 3.1652C9.93146 2.99155 9.60936 2.89958 9.22135 2.86525C8.99664 2.84535 8.96398 2.84539 8.73272 2.86591ZM8.7742 3.99078C8.74946 3.99535 8.67275 4.01229 8.60372 4.02846C7.78769 4.21957 7.23423 4.99303 7.31916 5.82368C7.35998 6.22292 7.50047 6.52931 7.77585 6.81967C7.98722 7.04254 8.22835 7.18991 8.53519 7.28375C8.67946 7.32787 8.71916 7.3321 8.99004 7.3321C9.26092 7.3321 9.30062 7.32787 9.44489 7.28375C9.75173 7.18991 9.99286 7.04254 10.2042 6.81967C10.4796 6.52931 10.6201 6.22292 10.6609 5.82368C10.7192 5.25411 10.4721 4.68362 10.014 4.33005C9.72912 4.1101 9.41798 4.00085 9.044 3.98939C8.92034 3.9856 8.79893 3.98623 8.7742 3.99078ZM1.90476 13.9183C1.52544 14.7645 1.19493 15.5066 1.1703 15.5676C1.13206 15.6623 1.12672 15.699 1.1337 15.8195C1.14063 15.9389 1.14996 15.9722 1.1945 16.0355C1.26878 16.1412 1.41471 16.2547 1.53346 16.2991L1.63474 16.337H8.99644C15.5745 16.337 16.3681 16.3341 16.4515 16.3093C16.5647 16.2757 16.7566 16.1055 16.8132 15.9886C16.8547 15.9028 16.8626 15.7436 16.831 15.6297C16.8205 15.5919 16.4767 14.8472 16.067 13.9749L15.322 12.3889L8.95824 12.3844L2.59444 12.3799L1.90476 13.9183ZM7.73112 14.1105C7.54454 14.152 7.36136 14.3398 7.31684 14.5352C7.29123 14.6477 7.30501 14.7841 7.35298 14.8926C7.39671 14.9916 7.53159 15.1249 7.6375 15.1738C7.72164 15.2127 7.72678 15.2128 8.99004 15.2128C10.2533 15.2128 10.2584 15.2127 10.3426 15.1738C10.4485 15.1249 10.5834 14.9916 10.6271 14.8926C10.6751 14.7841 10.6888 14.6477 10.6632 14.5352C10.6171 14.3329 10.4347 14.1514 10.2348 14.1089C10.1117 14.0828 7.84931 14.0842 7.73112 14.1105ZM0.00338522 15.7794C0.00338522 15.8932 0.00631708 15.9398 0.00987849 15.8829C0.0134399 15.826 0.0134399 15.7329 0.00987849 15.676C0.00631708 15.6191 0.00338522 15.6657 0.00338522 15.7794Z" fill="white"/>
</svg>
