<svg width="18" height="18" viewBox="0 0 18 18" fill="none" xmlns="http://www.w3.org/2000/svg">
<path fill-rule="evenodd" clip-rule="evenodd" d="M8.58314 0.139568C8.8299 -0.0465225 9.1701 -0.0465225 9.41686 0.139568L17.4461 6.19495C17.4647 6.20892 17.4825 6.2238 17.4995 6.23956C17.7969 6.51479 17.976 6.8947 17.9989 7.29929C17.9996 7.31233 18 7.3254 18 7.33846V16.5855L18 16.5876C17.9989 16.9618 17.8497 17.3204 17.5851 17.5851C17.3204 17.8497 16.9618 17.9989 16.5876 18L16.5855 18H1.41452L1.41241 18C1.03817 17.9989 0.679581 17.8497 0.41495 17.5851C0.150319 17.3204 0.00114595 16.9618 3.24616e-06 16.5876L0 16.5855V7.33846C0 7.3254 0.000369842 7.31233 0.00110914 7.29929C0.0240388 6.8947 0.203071 6.51479 0.500508 6.23956C0.517531 6.2238 0.535335 6.20892 0.553852 6.19495L8.58314 0.139568ZM1.42585 7.27156C1.40333 7.29813 1.38896 7.33074 1.38462 7.36543V16.5837C1.38474 16.5921 1.38811 16.6001 1.39402 16.606C1.39993 16.6119 1.4079 16.6153 1.41625 16.6154H16.5837C16.5921 16.6153 16.6001 16.6119 16.606 16.606C16.6119 16.6001 16.6153 16.5921 16.6154 16.5837V7.36543C16.611 7.33074 16.5967 7.29813 16.5742 7.27156L9 1.55942L1.42585 7.27156Z" fill="white"/>
</svg>
