<svg width="18" height="18" viewBox="0 0 18 18" fill="none" xmlns="http://www.w3.org/2000/svg">
<path fill-rule="evenodd" clip-rule="evenodd" d="M2.37083 1.38462C2.26066 1.38462 2.15501 1.42838 2.07711 1.50628C1.99921 1.58418 1.95545 1.68983 1.95545 1.8V16.2C1.95545 16.3102 1.99921 16.4158 2.07711 16.4937C2.15501 16.5716 2.26067 16.6154 2.37083 16.6154H15.6292C15.7393 16.6154 15.845 16.5716 15.9229 16.4937C16.0008 16.4158 16.0446 16.3102 16.0446 16.2V3.92898C16.0446 3.87356 16.0335 3.81832 16.012 3.76724C15.9905 3.71617 15.959 3.66991 15.9194 3.63119L13.7376 1.50258C13.6601 1.42707 13.556 1.38464 13.4478 1.38462C13.4477 1.38462 13.4478 1.38462 13.4478 1.38462H2.37083ZM1.09804 0.527208C1.4356 0.189642 1.89344 0 2.37083 0H13.4478C13.9172 4.70968e-05 14.3681 0.183486 14.7042 0.5112L16.8865 2.64034C17.0583 2.80812 17.1951 3.00881 17.2882 3.23015C17.3814 3.45149 17.4293 3.68923 17.4292 3.92937V16.2C17.4292 16.6774 17.2395 17.1352 16.902 17.4728C16.5644 17.8104 16.1066 18 15.6292 18H2.37083C1.89344 18 1.4356 17.8104 1.09804 17.4728C0.760475 17.1352 0.570831 16.6774 0.570831 16.2V1.8C0.570831 1.32261 0.760474 0.864773 1.09804 0.527208ZM4.58333 4.0125C5.02477 3.57107 5.62348 3.32308 6.24775 3.32308C6.87203 3.32308 7.47074 3.57107 7.91217 4.0125C8.35361 4.45393 8.6016 5.05264 8.6016 5.67692C8.6016 6.3012 8.35361 6.89991 7.91217 7.34134C7.47074 7.78278 6.87203 8.03077 6.24775 8.03077C5.62348 8.03077 5.02477 7.78278 4.58333 7.34134C4.1419 6.89991 3.89391 6.3012 3.89391 5.67692C3.89391 5.05264 4.1419 4.45393 4.58333 4.0125ZM6.24775 4.70769C5.9907 4.70769 5.74417 4.80981 5.5624 4.99157C5.38064 5.17334 5.27852 5.41987 5.27852 5.67692C5.27852 5.93398 5.38064 6.18051 5.5624 6.36227C5.74417 6.54404 5.9907 6.64615 6.24775 6.64615C6.50481 6.64615 6.75134 6.54404 6.9331 6.36227C7.11487 6.18051 7.21699 5.93398 7.21699 5.67692C7.21699 5.41987 7.11487 5.17334 6.9331 4.99157C6.75134 4.80981 6.50481 4.70769 6.24775 4.70769ZM9.85282 8.36388C10.0613 8.25665 10.2928 8.20199 10.5273 8.20466C10.7617 8.20733 10.9919 8.26723 11.1979 8.37918C11.4039 8.49109 11.5794 8.65162 11.7091 8.84681C11.7091 8.84677 11.7092 8.84686 11.7091 8.84681L14.6072 13.1942C14.8193 13.5124 14.7333 13.9422 14.4151 14.1543C14.097 14.3664 13.6672 14.2804 13.4551 13.9622L10.5566 9.61418C10.5517 9.60682 10.5446 9.59999 10.5368 9.59577C10.5291 9.59155 10.5204 9.58929 10.5115 9.58919C10.5027 9.58909 10.494 9.59115 10.4861 9.59519C10.4782 9.59924 10.4715 9.60514 10.4664 9.61239L8.4787 12.4525C8.36892 12.6094 8.19906 12.7138 8.00952 12.7409C7.81998 12.768 7.62767 12.7154 7.47832 12.5956L6.24683 11.6077C6.24678 11.6077 6.24687 11.6077 6.24683 11.6077C6.24098 11.6031 6.2341 11.5996 6.22688 11.5976C6.2196 11.5957 6.212 11.5953 6.20455 11.5964C6.19711 11.5976 6.18999 11.6003 6.18364 11.6043C6.1773 11.6084 6.17186 11.6137 6.16769 11.62L4.60866 13.9619C4.39677 14.2802 3.967 14.3664 3.64872 14.1545C3.33045 13.9426 3.2442 13.5129 3.45608 13.1946L5.01483 10.8532C5.12543 10.6869 5.26942 10.5455 5.43765 10.4379C5.60588 10.3303 5.79467 10.2589 5.99199 10.2282C6.18931 10.1976 6.39085 10.2083 6.5838 10.2598C6.77674 10.3113 6.95686 10.4024 7.11268 10.5272L7.76813 11.053L9.33101 8.81991" fill="white"/>
</svg>
