<svg width="18" height="18" viewBox="0 0 18 18" fill="none" xmlns="http://www.w3.org/2000/svg">
<path fill-rule="evenodd" clip-rule="evenodd" d="M2.63604 2.63604C4.32387 0.948212 6.61305 0 9 0C11.3869 0 13.6761 0.948211 15.364 2.63604C17.0518 4.32387 18 6.61305 18 9C18 11.3869 17.0518 13.6761 15.364 15.364C15.1058 15.6221 14.8337 15.8629 14.5492 16.0857C14.5363 16.0965 14.523 16.1068 14.5095 16.1166C12.9409 17.331 11.005 18 9 18C6.99576 18 5.06044 17.3315 3.49218 16.1179C3.47743 16.1073 3.463 16.0961 3.44893 16.0842C3.16516 15.8619 2.8936 15.6215 2.63604 15.364C0.948211 13.6761 0 11.3869 0 9C0 6.61305 0.948212 4.32387 2.63604 2.63604ZM5.01289 15.4883C6.20254 16.2193 7.58085 16.6154 9 16.6154C10.4191 16.6154 11.7974 16.2193 12.987 15.4883C12.5324 15.1356 12.0321 14.8441 11.4986 14.6221C10.7068 14.2927 9.85758 14.1231 8.99994 14.1231C8.1423 14.1231 7.29312 14.2927 6.50128 14.6221C5.96782 14.8441 5.46747 15.1356 5.01289 15.4883ZM14.1267 14.6313C13.5006 14.096 12.7934 13.6612 12.0305 13.3437C11.0701 12.9442 10.0401 12.7385 8.99994 12.7385C7.95974 12.7385 6.9298 12.9442 5.96941 13.3437C5.20646 13.6612 4.49935 14.096 3.87326 14.6312C3.78549 14.5513 3.69942 14.4692 3.61511 14.3849C2.18695 12.9567 1.38462 11.0197 1.38462 9C1.38462 6.98027 2.18695 5.04327 3.61511 3.61511C5.04327 2.18695 6.98027 1.38462 9 1.38462C11.0197 1.38462 12.9567 2.18695 14.3849 3.61511C15.8131 5.04327 16.6154 6.98027 16.6154 9C16.6154 11.0197 15.8131 12.9567 14.3849 14.3849C14.3006 14.4692 14.2145 14.5514 14.1267 14.6313ZM5.76907 4.10753C6.62596 3.25063 7.78817 2.76923 9 2.76923C10.2118 2.76923 11.374 3.25063 12.2309 4.10753C13.0878 4.96442 13.5692 6.12663 13.5692 7.33846C13.5692 8.5503 13.0878 9.7125 12.2309 10.5694C11.374 11.4263 10.2118 11.9077 9 11.9077C7.78817 11.9077 6.62596 11.4263 5.76907 10.5694C4.91217 9.7125 4.43077 8.5503 4.43077 7.33846C4.43077 6.12663 4.91217 4.96442 5.76907 4.10753ZM9 4.15385C8.15539 4.15385 7.34537 4.48937 6.74814 5.0866C6.15091 5.68383 5.81538 6.49385 5.81538 7.33846C5.81538 8.18307 6.15091 8.99309 6.74814 9.59033C7.34537 10.1876 8.15539 10.5231 9 10.5231C9.84461 10.5231 10.6546 10.1876 11.2519 9.59033C11.8491 8.99309 12.1846 8.18307 12.1846 7.33846C12.1846 6.49385 11.8491 5.68383 11.2519 5.0866C10.6546 4.48937 9.84461 4.15385 9 4.15385Z" fill="white"/>
</svg>
