<svg width="16" height="20" viewBox="0 0 16 20" fill="none" xmlns="http://www.w3.org/2000/svg">
<path fill-rule="evenodd" clip-rule="evenodd" d="M4.95767 4.45516C5.9222 4.05564 6.95599 3.85001 8 3.85001C9.04401 3.85001 10.0778 4.05564 11.0423 4.45516C12.0069 4.85469 12.8833 5.44028 13.6215 6.17851C14.3597 6.91673 14.9453 7.79313 15.3448 8.75767C15.7444 9.72221 15.95 10.756 15.95 11.8C15.95 12.844 15.7444 13.8778 15.3448 14.8423C14.9453 15.8069 14.3597 16.6833 13.6215 17.4215C12.8833 18.1597 12.0069 18.7453 11.0423 19.1448C10.0778 19.5444 9.04401 19.75 8 19.75C6.95599 19.75 5.9222 19.5444 4.95767 19.1448C3.99313 18.7453 3.11673 18.1597 2.3785 17.4215C1.64027 16.6833 1.05468 15.8069 0.655157 14.8423C0.255632 13.8778 0.0499992 12.844 0.0499992 11.8C0.0499992 10.756 0.255632 9.72221 0.655157 8.75767C1.05468 7.79313 1.64027 6.91673 2.3785 6.17851C3.11673 5.44028 3.99313 4.85469 4.95767 4.45516ZM8 5.35001C7.15297 5.35001 6.31424 5.51684 5.53169 5.84098C4.74914 6.16513 4.0381 6.64023 3.43916 7.23917C2.84022 7.8381 2.36512 8.54915 2.04098 9.3317C1.71683 10.1142 1.55 10.953 1.55 11.8C1.55 12.647 1.71683 13.4858 2.04098 14.2683C2.36512 15.0509 2.84022 15.7619 3.43916 16.3608C4.0381 16.9598 4.74914 17.4349 5.53169 17.759C6.31424 18.0832 7.15297 18.25 8 18.25C8.84702 18.25 9.68576 18.0832 10.4683 17.759C11.2509 17.4349 11.9619 16.9598 12.5608 16.3608C13.1598 15.7619 13.6349 15.0509 13.959 14.2683C14.2832 13.4858 14.45 12.647 14.45 11.8C14.45 10.953 14.2832 10.1142 13.959 9.3317C13.6349 8.54915 13.1598 7.83811 12.5608 7.23917C11.9619 6.64023 11.2509 6.16513 10.4683 5.84098C9.68576 5.51684 8.84702 5.35001 8 5.35001Z" fill="white"/>
<path fill-rule="evenodd" clip-rule="evenodd" d="M14.8303 4.36966C15.1232 4.66256 15.1232 5.13743 14.8303 5.43032L13.3303 6.93032C13.0374 7.22322 12.5626 7.22322 12.2697 6.93032C11.9768 6.63743 11.9768 6.16256 12.2697 5.86966L13.7697 4.36966C14.0626 4.07677 14.5374 4.07677 14.8303 4.36966Z" fill="white"/>
<path fill-rule="evenodd" clip-rule="evenodd" d="M13.4697 4.06968C13.7626 3.77678 14.2374 3.77678 14.5303 4.06968L15.1303 4.66968C15.4232 4.96257 15.4232 5.43744 15.1303 5.73034C14.8374 6.02323 14.3626 6.02323 14.0697 5.73034L13.4697 5.13034C13.1768 4.83744 13.1768 4.36257 13.4697 4.06968Z" fill="white"/>
<path fill-rule="evenodd" clip-rule="evenodd" d="M8 0.25C8.41421 0.25 8.75 0.585786 8.75 1V4.6C8.75 5.01421 8.41421 5.35 8 5.35C7.58579 5.35 7.25 5.01421 7.25 4.6V1C7.25 0.585786 7.58579 0.25 8 0.25Z" fill="white"/>
<path fill-rule="evenodd" clip-rule="evenodd" d="M5.45 1C5.45 0.585786 5.78579 0.25 6.2 0.25H9.8C10.2142 0.25 10.55 0.585786 10.55 1C10.55 1.41421 10.2142 1.75 9.8 1.75H6.2C5.78579 1.75 5.45 1.41421 5.45 1Z" fill="white"/>
<path fill-rule="evenodd" clip-rule="evenodd" d="M4.49723 8.52267C4.80459 8.245 5.27886 8.26907 5.55653 8.57643L8.55653 11.8972C8.8342 12.2046 8.81013 12.6789 8.50277 12.9565C8.1954 13.2342 7.72114 13.2101 7.44347 12.9028L4.44347 9.58197C4.1658 9.2746 4.18987 8.80034 4.49723 8.52267Z" fill="white"/>
</svg>
