<svg width="18" height="16" viewBox="0 0 18 16" fill="none" xmlns="http://www.w3.org/2000/svg">
<path fill-rule="evenodd" clip-rule="evenodd" d="M7.01114 0.472686C7.24484 0.238988 7.56181 0.107697 7.89231 0.107697H10.1077C10.4382 0.107697 10.7552 0.238987 10.9889 0.472686C11.2226 0.706387 11.3538 1.02335 11.3538 1.35385V14.5077H12.1846V4.67693C12.1846 4.34643 12.3159 4.02946 12.5496 3.79576C12.7833 3.56206 13.1003 3.43077 13.4308 3.43077H15.6462C15.9767 3.43077 16.2936 3.56206 16.5273 3.79576C16.761 4.02946 16.8923 4.34643 16.8923 4.67693V14.5077H17.3077C17.69 14.5077 18 14.8177 18 15.2C18 15.5824 17.69 15.8923 17.3077 15.8923H5.12466C5.12413 15.8923 5.1236 15.8923 5.12308 15.8923H1.8C1.79947 15.8923 1.79895 15.8923 1.79842 15.8923H0.692308C0.309957 15.8923 0 15.5824 0 15.2C0 14.8177 0.309957 14.5077 0.692308 14.5077H1.10769V8C1.10769 7.6695 1.23898 7.35254 1.47268 7.11884C1.70638 6.88514 2.02334 6.75385 2.35385 6.75385H4.56923C4.89973 6.75385 5.2167 6.88514 5.45039 7.11884C5.68409 7.35254 5.81538 7.6695 5.81538 8V14.5077H6.64615V1.35385C6.64615 1.02335 6.77745 0.706385 7.01114 0.472686ZM8.03077 14.5077H9.96923V1.49231H8.03077V14.5077ZM4.43077 14.5077V8.13847H2.49231V14.5077H4.43077ZM15.5077 14.5077V4.81539H13.5692V14.5077H15.5077Z" fill="white"/>
</svg>
