<svg width="12" height="12" viewBox="0 0 12 12" fill="none" xmlns="http://www.w3.org/2000/svg">
<path fill-rule="evenodd" clip-rule="evenodd" d="M0.953846 0.923077C0.936852 0.923077 0.923077 0.936853 0.923077 0.953846V7.84615C0.923077 7.86315 0.936847 7.87692 0.953846 7.87692H7.84615C7.86315 7.87692 7.87692 7.86315 7.87692 7.84615V0.953846C7.87692 0.936849 7.86315 0.923077 7.84615 0.923077H0.953846ZM0 0.953846C0 0.427046 0.427057 0 0.953846 0H7.84615C8.37296 0 8.8 0.42706 8.8 0.953846V7.84615C8.8 8.37296 8.37296 8.8 7.84615 8.8H0.953846C0.427052 8.8 0 8.37296 0 7.84615V0.953846ZM9.23077 3.66154C9.23077 3.40664 9.43741 3.2 9.69231 3.2H11.0462C11.573 3.2 12 3.62706 12 4.15385V11.0462C12 11.573 11.573 12 11.0462 12H4.15385C3.62705 12 3.2 11.573 3.2 11.0462V9.69231C3.2 9.43741 3.40664 9.23077 3.66154 9.23077C3.91644 9.23077 4.12308 9.43741 4.12308 9.69231V11.0462C4.12308 11.0632 4.13685 11.0769 4.15385 11.0769H11.0462C11.0632 11.0769 11.0769 11.0632 11.0769 11.0462V4.15385C11.0769 4.13685 11.0631 4.12308 11.0462 4.12308H9.69231C9.43741 4.12308 9.23077 3.91644 9.23077 3.66154Z" fill="#1F544E"/>
</svg>
