<svg width="12" height="12" viewBox="0 0 12 12" fill="none" xmlns="http://www.w3.org/2000/svg">
<path fill-rule="evenodd" clip-rule="evenodd" d="M1.75736 1.75736C2.88258 0.632141 4.4087 0 6 0C7.5913 0 9.11742 0.632141 10.2426 1.75736C11.3679 2.88258 12 4.4087 12 6C12 7.5913 11.3679 9.11742 10.2426 10.2426C9.11742 11.3679 7.5913 12 6 12C4.4087 12 2.88258 11.3679 1.75736 10.2426C0.632141 9.11742 0 7.5913 0 6C0 4.4087 0.632141 2.88258 1.75736 1.75736ZM6 0.923077C4.65352 0.923077 3.36218 1.45797 2.41007 2.41007C1.45797 3.36218 0.923077 4.65352 0.923077 6C0.923077 7.34648 1.45797 8.63782 2.41007 9.58993C3.36218 10.542 4.65352 11.0769 6 11.0769C7.34648 11.0769 8.63782 10.542 9.58993 9.58993C10.542 8.63782 11.0769 7.34648 11.0769 6C11.0769 4.65352 10.542 3.36218 9.58993 2.41007C8.63782 1.45797 7.34648 0.923077 6 0.923077ZM6 2.95385C6.2549 2.95385 6.46154 3.16048 6.46154 3.41538V7.83959L7.5198 6.78134C7.70004 6.60109 7.99227 6.60109 8.17251 6.78134C8.35275 6.96158 8.35275 7.25381 8.17251 7.43405L6.32636 9.2802C6.14612 9.46045 5.85389 9.46045 5.67364 9.2802L3.82749 7.43405C3.64725 7.25381 3.64725 6.96158 3.82749 6.78134C4.00773 6.60109 4.29996 6.60109 4.4802 6.78134L5.53846 7.83959V3.41538C5.53846 3.16048 5.7451 2.95385 6 2.95385Z" fill="#1F544E"/>
</svg>
