<svg width="16" height="18" viewBox="0 0 16 18" fill="none" xmlns="http://www.w3.org/2000/svg">
<path fill-rule="evenodd" clip-rule="evenodd" d="M2.64616 1.38462C2.43807 1.38462 2.2385 1.46728 2.09135 1.61442C1.94421 1.76157 1.86154 1.96114 1.86154 2.16923V15.8308C1.86154 16.0389 1.94421 16.2384 2.09135 16.3856C2.2385 16.5327 2.43807 16.6154 2.64616 16.6154H13.3539C13.5619 16.6154 13.7615 16.5327 13.9087 16.3856C14.0558 16.2384 14.1385 16.0389 14.1385 15.8308V6.18462L11.5077 6.18462C10.9324 6.18462 10.3806 5.95607 9.97382 5.54926C9.56701 5.14245 9.33847 4.5907 9.33847 4.01538V1.38462H2.64616ZM10.7231 2.36369L13.1594 4.8H11.5077C11.2996 4.8 11.1 4.71734 10.9529 4.57019C10.8057 4.42305 10.7231 4.22348 10.7231 4.01538V2.36369ZM1.11228 0.635353C1.51909 0.228543 2.07084 0 2.64616 0H10.0308C10.2144 0 10.3905 0.0729394 10.5203 0.202772L15.3203 5.00277C15.4501 5.13261 15.5231 5.3087 15.5231 5.49231V15.8308C15.5231 16.4061 15.2945 16.9578 14.8877 17.3646C14.4809 17.7715 13.9292 18 13.3539 18H2.64616C2.07084 18 1.51909 17.7715 1.11228 17.3646C0.705472 16.9578 0.476929 16.4061 0.476929 15.8308V2.16923C0.476929 1.59391 0.705472 1.04216 1.11228 0.635353ZM3.24616 7.70769C3.24616 7.32534 3.55612 7.01538 3.93847 7.01538H12.0615C12.4439 7.01538 12.7539 7.32534 12.7539 7.70769C12.7539 8.09004 12.4439 8.4 12.0615 8.4H3.93847C3.55612 8.4 3.24616 8.09004 3.24616 7.70769ZM3.24616 10.0486C3.24616 9.66621 3.55612 9.35625 3.93847 9.35625H12.0615C12.4439 9.35625 12.7539 9.66621 12.7539 10.0486C12.7539 10.4309 12.4439 10.7409 12.0615 10.7409H3.93847C3.55612 10.7409 3.24616 10.4309 3.24616 10.0486ZM3.24616 12.3822C3.24616 11.9999 3.55612 11.6899 3.93847 11.6899H12.0615C12.4439 11.6899 12.7539 11.9999 12.7539 12.3822C12.7539 12.7646 12.4439 13.0745 12.0615 13.0745H3.93847C3.55612 13.0745 3.24616 12.7646 3.24616 12.3822ZM3.24616 14.7231C3.24616 14.3407 3.55612 14.0308 3.93847 14.0308H7.82277C8.20513 14.0308 8.51508 14.3407 8.51508 14.7231C8.51508 15.1054 8.20513 15.4154 7.82277 15.4154H3.93847C3.55612 15.4154 3.24616 15.1054 3.24616 14.7231Z" fill="#0A332F"/>
</svg>
