<svg width="18" height="18" viewBox="0 0 18 18" fill="none" xmlns="http://www.w3.org/2000/svg">
<path fill-rule="evenodd" clip-rule="evenodd" d="M6.76286 0.551752C6.38004 0.614891 6.01356 0.758561 5.69611 0.969979C5.49007 1.10721 5.13917 1.45658 5.01198 1.65111C4.86749 1.87213 0.217518 9.92844 0.138558 10.0945C-0.00730465 10.4014 6.20008e-05 10.2756 6.20008e-05 12.4595V14.4219L0.0560161 14.5359C0.159068 14.7457 0.352553 14.8732 0.593498 14.89C0.691901 14.8969 0.749767 14.8894 0.825285 14.8602C0.929907 14.8198 3.98947 13.1874 4.16643 13.0776C4.33564 12.9726 4.45993 12.8595 4.56868 12.7115C4.71414 12.5137 9.42 4.3581 9.51534 4.13863C9.87274 3.31605 9.77527 2.36211 9.25807 1.62092C9.20401 1.54343 9.0688 1.38909 8.95761 1.27795C8.60104 0.921492 8.21433 0.707135 7.71891 0.591342C7.45599 0.529893 7.00791 0.511336 6.76286 0.551752ZM6.81966 1.83207C6.53758 1.90602 6.29164 2.05873 6.13159 2.2593C6.08429 2.31857 4.96847 4.23257 3.65199 6.5126L1.25839 10.6581L1.2582 11.9324C1.2581 12.6332 1.26483 13.2029 1.27312 13.1984C1.28141 13.1939 1.78637 12.9247 2.39522 12.6002C3.00407 12.2758 3.52139 11.9914 3.5448 11.9682C3.58755 11.926 8.22304 3.90459 8.34081 3.66908C8.60176 3.14724 8.43662 2.43153 7.97457 2.08192C7.82666 1.97001 7.61447 1.86561 7.448 1.82284C7.28448 1.78081 6.99924 1.78502 6.81966 1.83207ZM10.104 9.19282C9.40396 9.25634 8.63274 9.72497 8.07352 10.4266C7.37526 11.3028 6.88288 12.4128 6.76149 13.3846C6.72734 13.6581 6.72408 14.1283 6.75461 14.3817C6.80404 14.7919 6.95331 15.2779 7.13015 15.6045C7.15867 15.6572 7.17698 15.7052 7.17089 15.7113C7.14657 15.7356 6.72567 15.8683 6.44082 15.9414C5.69366 16.1331 5.18137 16.1839 3.82426 16.2005L2.77764 16.2133L2.68338 16.2615C2.47436 16.3683 2.34386 16.5648 2.32969 16.7941C2.31314 17.0618 2.45232 17.2903 2.70277 17.4068C2.81691 17.4598 2.82252 17.4604 3.36134 17.4677C4.0724 17.4774 5.06309 17.4421 5.5049 17.3913C6.3424 17.2951 7.07953 17.1147 7.78415 16.8333L8.06072 16.7229L8.13732 16.7835C8.42208 17.0091 8.93944 17.2601 9.32353 17.3592C9.66378 17.447 10.2415 17.4799 10.5789 17.4307C11.3707 17.3152 12.1085 16.9645 12.9002 16.327C13.0322 16.2208 13.1436 16.144 13.1478 16.1565C13.152 16.169 13.2024 16.2583 13.26 16.3549C13.6047 16.9341 14.1331 17.2799 14.8771 17.4133C15.0953 17.4525 15.2086 17.457 16.2026 17.466C17.5403 17.4782 17.6146 17.4699 17.8005 17.2868C18.1189 16.9734 18.0466 16.4772 17.6518 16.2669L17.5511 16.2133L16.3536 16.2008C15.0303 16.187 15.0066 16.1849 14.7333 16.0546C14.5261 15.9558 14.4155 15.8479 14.3211 15.6526C14.2126 15.4284 14.1781 15.2163 14.1847 14.8144C14.1897 14.5104 14.1885 14.4999 14.1362 14.4018C13.9795 14.1075 13.6483 13.9766 13.3477 14.09C13.2039 14.1442 13.1136 14.2317 12.9118 14.5119C12.8288 14.6272 12.6476 14.8352 12.5092 14.9743C11.6493 15.8382 10.6988 16.2812 9.91479 16.1833C9.74226 16.1617 9.40076 16.0692 9.33401 16.0259C9.31667 16.0146 9.38309 15.9519 9.54535 15.8263C10.4496 15.1264 11.1849 14.2071 11.7552 13.0633C12.1006 12.3705 12.2035 12.0109 12.2218 11.4311C12.2299 11.1753 12.2248 11.0521 12.1998 10.9053C12.0384 9.95891 11.3843 9.29998 10.5066 9.19976C10.3284 9.17941 10.2639 9.17831 10.104 9.19282ZM10.0697 10.4753C9.53287 10.6298 8.99396 11.166 8.55094 11.9865C7.94394 13.1107 7.82893 14.1165 8.21381 14.9347C8.26598 15.0457 8.31603 15.1365 8.32501 15.1365C8.33399 15.1365 8.42094 15.0808 8.51821 15.0128C9.38755 14.4049 10.1023 13.5503 10.6368 12.4796C10.8761 12.0003 10.9632 11.7041 10.9653 11.3626C10.968 10.9313 10.8368 10.6513 10.5669 10.5122C10.4455 10.4496 10.2177 10.4327 10.0697 10.4753Z" fill="#214E0A"/>
</svg>
