<svg width="18" height="18" viewBox="0 0 18 18" fill="none" xmlns="http://www.w3.org/2000/svg">
<path fill-rule="evenodd" clip-rule="evenodd" d="M2.63604 2.63604C4.32387 0.948212 6.61305 0 9 0C11.3869 0 13.6761 0.948211 15.364 2.63604C17.0518 4.32387 18 6.61305 18 9C18 11.3869 17.0518 13.6761 15.364 15.364C13.6761 17.0518 11.3869 18 9 18C6.61305 18 4.32387 17.0518 2.63604 15.364C0.948211 13.6761 0 11.3869 0 9C0 6.61305 0.948212 4.32387 2.63604 2.63604ZM9 1.38462C6.98027 1.38462 5.04327 2.18695 3.61511 3.61511C2.18695 5.04327 1.38462 6.98027 1.38462 9C1.38462 11.0197 2.18695 12.9567 3.61511 14.3849C5.04327 15.8131 6.98027 16.6154 9 16.6154C11.0197 16.6154 12.9567 15.8131 14.3849 14.3849C15.8131 12.9567 16.6154 11.0197 16.6154 9C16.6154 6.98027 15.8131 5.04327 14.3849 3.61511C12.9567 2.18695 11.0197 1.38462 9 1.38462ZM6.16055 6.16062C6.43089 5.89024 6.86923 5.8902 7.13962 6.16055L8.9999 8.02054L10.8602 6.16055C11.1306 5.8902 11.5689 5.89024 11.8393 6.16062C12.1096 6.43101 12.1096 6.86935 11.8392 7.13969L9.97905 8.99954L11.8392 10.8594C12.1096 11.1297 12.1096 11.5681 11.8393 11.8384C11.5689 12.1088 11.1306 12.1089 10.8602 11.8385L8.9999 9.97853L7.13962 11.8385C6.86923 12.1089 6.43089 12.1088 6.16055 11.8384C5.8902 11.5681 5.89024 11.1297 6.16062 10.8594L8.02076 8.99954L6.16062 7.13969C5.89024 6.86935 5.8902 6.43101 6.16055 6.16062Z" fill="#82262A"/>
</svg>
