<svg width="18" height="18" viewBox="0 0 18 18" fill="none" xmlns="http://www.w3.org/2000/svg">
<path fill-rule="evenodd" clip-rule="evenodd" d="M16.0696 2.9034L9.29026 9.68273L10.8862 16.3131C10.9118 16.3972 10.9627 16.4714 11.0322 16.5255C11.1041 16.5816 11.1922 16.613 11.2834 16.6153C11.3746 16.6175 11.4641 16.5904 11.5388 16.538C11.6129 16.4859 11.6685 16.4116 11.6975 16.3257C11.6977 16.3252 11.6979 16.3246 11.6981 16.324L16.0696 2.9034ZM8.31085 8.704L15.0837 1.9312L1.67879 6.30307C1.67811 6.3033 1.67742 6.30353 1.67673 6.30377C1.59111 6.33296 1.51696 6.38861 1.46501 6.46271C1.41264 6.5374 1.38558 6.62691 1.38779 6.7181C1.39001 6.8093 1.42138 6.89739 1.47732 6.96945C1.53111 7.03875 1.6049 7.08973 1.68857 7.11556L8.31085 8.704ZM7.95257 10.042L1.34916 8.45804C1.34028 8.45591 1.33145 8.45361 1.32267 8.45113C0.950056 8.34601 0.620924 8.12428 0.383534 7.81845C0.146144 7.51261 0.0129862 7.13876 0.00358604 6.75172C-0.00581413 6.36468 0.109038 5.98481 0.331301 5.66781C0.553564 5.35081 0.871544 5.11336 1.23861 4.99028L1.24403 4.98847L16.3496 0.0619406C16.5697 -0.00982581 16.8055 -0.0194432 17.0308 0.034206C17.2278 0.0811383 17.4102 0.174869 17.5627 0.306927C17.5856 0.324707 17.6077 0.344127 17.6287 0.365188C17.6485 0.384979 17.6669 0.405671 17.6838 0.427131C17.8176 0.579331 17.9129 0.761973 17.9611 0.959682C18.016 1.18465 18.0076 1.42039 17.937 1.64092L17.936 1.64425L13.0117 16.7618C12.8892 17.1295 12.6518 17.4483 12.3345 17.6711C12.0173 17.8939 11.6369 18.009 11.2493 17.9995C10.8617 17.9899 10.4875 17.8562 10.1816 17.6181C9.87566 17.3799 9.65428 17.0498 9.54998 16.6765C9.54773 16.6684 9.54563 16.6603 9.54368 16.6522L7.95257 10.042Z" fill="#1F544E"/>
</svg>
