<svg width="16" height="18" viewBox="0 0 16 18" fill="none" xmlns="http://www.w3.org/2000/svg">
<path fill-rule="evenodd" clip-rule="evenodd" d="M4.34185 0.166681C4.63216 0.415512 4.66577 0.852565 4.41694 1.14287L1.82495 4.16686C1.7891 4.20864 1.76169 4.25739 1.74474 4.30977C1.7278 4.36215 1.72144 4.41737 1.72602 4.47223C1.73061 4.52708 1.74606 4.58048 1.77146 4.62932C1.79684 4.67811 1.83165 4.72137 1.87388 4.75659M1.87388 4.75659L3.93561 6.47421C3.93559 6.47419 3.93563 6.47422 3.93561 6.47421C4.138 6.64279 4.30097 6.85379 4.41293 7.09222C4.5249 7.33066 4.58316 7.59078 4.58361 7.85421L4.58361 7.85543L4.58327 13.3759C5.09526 13.5015 5.56803 13.765 5.94697 14.144C6.49227 14.6893 6.79862 15.4288 6.79862 16.2V17.3077C6.79862 17.69 6.48866 18 6.10631 18C5.72396 18 5.414 17.69 5.414 17.3077V16.2C5.414 15.7961 5.25353 15.4087 4.9679 15.123C4.68227 14.8374 4.29487 14.6769 3.89092 14.6769C3.48698 14.6769 3.09958 14.8374 2.81395 15.123C2.52832 15.4087 2.36785 15.7961 2.36785 16.2V17.3077C2.36785 17.69 2.05789 18 1.67554 18C1.29319 18 0.983235 17.69 0.983235 17.3077V16.2C0.983235 15.4288 1.28958 14.6893 1.83488 14.144C2.21384 13.765 2.68664 13.5014 3.19866 13.3759L3.199 7.85608C3.19882 7.79546 3.18538 7.73561 3.15961 7.68073C3.13377 7.6257 3.09617 7.57702 3.04946 7.53811L0.987624 5.82041C0.804384 5.66768 0.653202 5.47994 0.543114 5.26832C0.433025 5.0567 0.366099 4.8253 0.346224 4.58759C0.32635 4.34987 0.353923 4.11058 0.427343 3.88361C0.500726 3.65676 0.618447 3.44675 0.773669 3.26577L3.36567 0.241772C3.6145 -0.0485301 4.05155 -0.0821496 4.34185 0.166681M8.80546 1.17609C9.55849 0.42306 10.5798 1.25418e-05 11.6448 1.25418e-05C12.7097 1.25418e-05 13.731 0.42306 14.4841 1.17609C15.2371 1.92912 15.6601 2.95045 15.6601 4.01539C15.6601 5.08034 15.2371 6.10167 14.4841 6.8547C13.8963 7.4425 13.145 7.82925 12.3371 7.97066V13.3759C12.8491 13.5014 13.3219 13.765 13.7008 14.144C14.2461 14.6893 14.5525 15.4288 14.5525 16.2V17.3077C14.5525 17.69 14.2425 18 13.8601 18C13.4778 18 13.1678 17.69 13.1678 17.3077V16.2C13.1678 15.7961 13.0074 15.4087 12.7217 15.123C12.4361 14.8374 12.0487 14.6769 11.6448 14.6769C11.2408 14.6769 10.8534 14.8374 10.5678 15.123C10.2822 15.4087 10.1217 15.7961 10.1217 16.2V17.3077C10.1217 17.69 9.81173 18 9.42938 18C9.04703 18 8.73708 17.69 8.73708 17.3077V16.2C8.73708 15.4288 9.04342 14.6893 9.58872 14.144C9.96767 13.765 10.4405 13.5014 10.9525 13.3759V7.97066C10.1446 7.82925 9.39327 7.4425 8.80546 6.8547C8.05243 6.10167 7.62938 5.08034 7.62938 4.01539C7.62938 2.95045 8.05243 1.92912 8.80546 1.17609ZM11.6448 1.38463C10.947 1.38463 10.2779 1.6618 9.78453 2.15516C9.29117 2.64853 9.014 3.31767 9.014 4.01539C9.014 4.71312 9.29117 5.38226 9.78453 5.87563C10.2779 6.36899 10.947 6.64616 11.6448 6.64616C12.3425 6.64616 13.0116 6.36899 13.505 5.87563C13.9984 5.38226 14.2755 4.71312 14.2755 4.01539C14.2755 3.31767 13.9984 2.64853 13.505 2.15516C13.0116 1.6618 12.3425 1.38463 11.6448 1.38463Z" fill="#1F544E"/>
</svg>
